#!OML:ASF F:\VICON\USERDATA\INSTALL\Justin_Nancy\Justin_Nancy.ASF
:FULLY-SPECIFIED
:DEGREES
17
root 14.2061 16.6492 -25.5884 -0.574039 -2.48419 -4.60332
lowerback 11.3741 2.27614 5.52869
upperback 0.480347 3.97868 3.96866
thorax -5.79157 1.85594 0.426105
lowerneck -17.809 -4.80579 -9.70897
upperneck 17.5144 -5.38418 6.60731
head 8.86684 -2.49322 3.14938
rclavicle -2.96189e-014 1.51076e-014
rhumerus -36.9633 17.4449 -86.7818
rradius 123.066
rwrist -18.5329
rhand -5.02835 21.7815
rfingers 7.12502
rthumb 20.7662 -7.12734
lclavicle -2.96189e-014 1.51076e-014
lhumerus -51.2365 -7.54274 98.2494
lradius 102.239
lwrist 24.822
lhand -16.2551 8.67366
lfingers 7.12502
lthumb 9.95405 38.4183
rfemur -3.73647 2.0529 32.2695
rtibia 42.4609
rfoot -20.7951 -17.4077
rtoes -16.9729
lfemur -34.7653 8.89913 -11.9139
ltibia 84.442
lfoot -7.40353 -2.92018
ltoes -8.37411
18
root 14.2245 16.7032 -25.2038 -0.472843 -2.3931 -4.62388
lowerback 11.327 2.38503 5.86807
upperback 0.268462 4.16723 3.79606
thorax -5.9478 1.92978 0.0257865
lowerneck -17.6889 -4.87565 -9.77372
upperneck 17.9127 -5.53018 6.77473
head 9.00201 -2.55264 3.20322
rclavicle -3.79679e-014 -1.98785e-014
rhumerus -37.112 17.6027 -87.1921
rradius 123.593
rwrist -17.8176
rhand -5.54583 21.3586
rfingers 7.12502
rthumb 20.2689 -7.60387
lclavicle -3.79679e-014 -1.98785e-014
lhumerus -52.3416 -7.59585 98.0895
lradius 102.746
lwrist 25.0652
lhand -18.9198 9.27982
lfingers 7.12502
lthumb 7.38252 39.131
rfemur -1.95665 2.30299 32.2316
rtibia 41.5566
rfoot -19.8096 -17.0299
rtoes -17.4006
lfemur -36.0397 8.74042 -12.3637
ltibia 81.6508
lfoot -7.98991 -2.24199
ltoes -6.96326
19
root 14.2378 16.7604 -24.817 -0.335952 -2.13699 -4.71924
lowerback 11.1309 2.45182 6.2224
upperback 0.171839 4.28264 3.6714
thorax -5.90059 1.97452 -0.310892
lowerneck -17.8776 -5.02661 -9.81294
upperneck 18.3491 -5.73634 6.80111
head 9.20752 -2.64702 3.19179
rclavicle -1.63003e-014 -1.27222e-014
rhumerus -37.2931 17.5431 -87.4589
rradius 124.022
rwrist -17.094
rhand -5.38205 22.2411
rfingers 7.12502
rthumb 20.4263 -6.70452
lclavicle -1.63003e-014 -1.27222e-014
lhumerus -53.0123 -7.58035 97.8737
lradius 102.929
lwrist 24.9933
lhand -19.6002 9.21891
lfingers 7.12502
lthumb 6.72578 39.0921
rfemur -0.283236 2.4863 32.3312
rtibia 40.6357
rfoot -18.6022 -16.5779
rtoes -17.4148
lfemur -37.1965 8.35971 -12.6405
ltibia 78.5016
lfoot -8.809 -1.86824
ltoes -6.85131
20
root 14.2527 16.8078 -24.4104 -0.218154 -1.56087 -4.73574
lowerback 10.7934 2.43978 6.44828
upperback 0.024201 4.27008 3.59217
thorax -5.84577 1.96091 -0.503062
lowerneck -17.8535 -5.21018 -9.91004
upperneck 18.515 -5.95757 6.72566
head 9.28215 -2.76626 3.15146
rclavicle 2.65874e-014 1.11319e-014
rhumerus -37.6482 17.3827 -87.6401
rradius 124.223
rwrist -16.3187
rhand -5.30341 23.2216
rfingers 7.12502
rthumb 20.5019 -5.71594
lclavicle 2.65874e-014 1.11319e-014
lhumerus -53.6973 -7.41341 97.6916
lradius 102.913
lwrist 24.5734
lhand -18.2576 8.44977
lfingers 7.12502
lthumb 8.02175 38.2775
rfemur 1.46326 2.37841 32.3391
rtibia 39.6356
rfoot -17.1737 -16.0809
rtoes -18.3115
lfemur -37.9992 7.60531 -12.9928
ltibia 75.0079
lfoot -10.2108 -1.5056
ltoes -10.0339
21
root 14.2738 16.8627 -23.9946 -0.132025 -1.25138 -4.65777
lowerback 10.5088 2.46337 6.56041
upperback -0.22792 4.30142 3.49415
thorax -5.93592 1.96549 -0.66344
lowerneck -17.4158 -5.13401 -9.90625
upperneck 18.5917 -5.88341 6.64931
head 9.22018 -2.74864 3.14149
rclavicle 1.85864e-014 4.85035e-014
rhumerus -38.216 17.4049 -87.9882
rradius 124.195
rwrist -15.7212
rhand -4.78637 24.2209
rfingers 7.12502
rthumb 20.9987 -4.66237
lclavicle 1.85864e-014 4.85035e-014
lhumerus -54.5491 -6.99792 97.5271
lradius 102.847
lwrist 24.1102
lhand -16.3617 7.8549
lfingers 7.12502
lthumb 9.85122 37.6044
rfemur 3.17508 2.46504 32.2222
rtibia 38.6128
rfoot -15.1367 -15.8099
rtoes -20.5425
lfemur -38.4834 6.95498 -13.3995
ltibia 71.1039
lfoot -11.1259 -1.3127
ltoes -12.7576
22
root 14.2985 16.9373 -23.5571 -0.0458827 -1.27499 -4.57879
lowerback 9.85391 2.57146 6.68328
upperback -0.289088 4.39566 3.40331
thorax -5.6093 2.01727 -0.806104
lowerneck -17.0015 -5.0787 -9.88646
upperneck 18.5914 -5.81858 6.49382
head 9.13373 -2.74155 3.09884
rclavicle -3.56818e-014 -4.85035e-014
rhumerus -38.8979 17.3725 -88.3374
rradius 124.257
rwrist -14.8837
rhand -3.91347 25.1573
rfingers 7.12502
rthumb 21.8371 -3.6306
lclavicle -3.56818e-014 -4.85035e-014
lhumerus -55.3364 -6.47792 97.3158
lradius 103.013
lwrist 23.8174
lhand -18.6589 8.30379
lfingers 7.12502
lthumb 7.63442 38.146
rfemur 4.92679 2.76144 32.015
rtibia 37.5472
rfoot -13.0198 -15.1313
rtoes -21.9357
lfemur -38.4954 6.42888 -13.6757
ltibia 66.7804
lfoot -11.4507 -1.21101
ltoes -11.7662
23
root 14.3145 17.0196 -23.1273 0.0555615 -0.929886 -4.3283
lowerback 9.25492 2.6423 6.62239
upperback -0.314156 4.4177 3.22844
thorax -5.28593 2.03855 -0.925655
lowerneck -16.9026 -5.26687 -9.74659
upperneck 18.6203 -6.0736 6.24875
head 9.13636 -2.87855 2.95656
rclavicle -6.21202e-014 -3.73715e-014
rhumerus -39.3981 17.0313 -88.5586
rradius 124.095
rwrist -13.9913
rhand -3.95343 25.2196
rfingers 7.12502
rthumb 21.7987 -3.57276
lclavicle -6.21202e-014 -3.73715e-014
lhumerus -55.7646 -6.23417 97.0968
lradius 103.037
lwrist 23.4849
lhand -19.8697 8.31907
lfingers 7.12502
lthumb 6.46557 38.2004
rfemur 6.53654 2.86521 31.7084
rtibia 36.4797
rfoot -10.6573 -13.9141
rtoes -21.2016
lfemur -38.3622 5.40272 -14.0237
ltibia 62.1721
lfoot -11.2434 -1.00322
ltoes -11.7824
24
root 14.329 17.0872 -22.7134 0.0744729 -0.270332 -4.19474
lowerback 8.93709 2.56323 6.63672
upperback -0.383214 4.28294 3.10976
thorax -5.17693 1.9733 -1.02498
lowerneck -16.9254 -5.33902 -9.64533
upperneck 18.7503 -6.17939 6.13814
head 9.18758 -2.93254 2.88722
rclavicle 6.42074e-014 3.73715e-014
rhumerus -39.7251 16.8253 -88.8148
rradius 123.641
rwrist -13.2771
rhand -4.96907 24.8111
rfingers 7.12502
rthumb 20.8231 -4.09153
lclavicle 6.42074e-014 3.73715e-014
lhumerus -56.0462 -5.89654 96.9051
lradius 102.939
lwrist 23.1265
lhand -20.3844 7.58109
lfingers 7.12502
lthumb 5.96869 37.477
rfemur 8.09435 2.78322 31.5918
rtibia 35.4541
rfoot -7.85037 -12.6058
rtoes -19.2832
lfemur -38.1656 3.92657 -14.0932
ltibia 57.4356
lfoot -10.3331 -0.726034
ltoes -13.5411
25
root 14.3412 17.1497 -22.2915 0.14262 0.38594 -4.06368
lowerback 8.63289 2.44155 6.5278
upperback -0.590197 4.09335 3.04806
thorax -5.2379 1.8776 -0.995725
lowerneck -16.9563 -5.2557 -9.68164
upperneck 19.2341 -6.06235 6.09772
head 9.35089 -2.88675 2.89851
rclavicle 3.83903e-014 4.45278e-014
rhumerus -40.6375 16.6579 -89.0872
rradius 123.421
rwrist -12.8425
rhand -5.10293 24.3749
rfingers 7.12502
rthumb 20.6945 -4.54177
lclavicle 3.83903e-014 4.45278e-014
lhumerus -56.6484 -5.44614 96.7914
lradius 102.97
lwrist 22.6269
lhand -20.6996 7.33578
lfingers 7.12502
lthumb 5.66436 37.2401
rfemur 9.4799 2.66934 31.4717
rtibia 34.5543
rfoot -4.8092 -11.5871
rtoes -18.5464
lfemur -37.8555 2.27315 -13.9832
ltibia 52.6797
lfoot -8.88123 -0.24458
ltoes -12.9418
26
root 14.3516 17.2096 -21.8715 0.23833 0.827229 -4.04864
lowerback 8.33948 2.38525 6.46692
upperback -0.740963 3.99448 3.01823
thorax -5.23878 1.82842 -0.970274
lowerneck -17.2404 -5.27335 -9.78488
upperneck 19.8522 -6.07296 6.165
head 9.62595 -2.88992 2.93805
rclavicle -6.70898e-015 -4.05521e-014
rhumerus -41.5415 16.4158 -89.3715
rradius 123.193
rwrist -12.2676
rhand -4.54383 24.6
rfingers 7.12502
rthumb 21.2317 -4.25718
lclavicle -6.70898e-015 -4.05521e-014
lhumerus -56.9543 -5.13427 96.5969
lradius 102.99
lwrist 22.4488
lhand -20.5154 7.51228
lfingers 7.12502
lthumb 5.8422 37.4117
rfemur 10.648 2.83756 31.5134
rtibia 33.8048
rfoot -1.70103 -11.045
rtoes -17.6062
lfemur -37.3741 0.697294 -13.6249
ltibia 48.0959
lfoot -7.22523 0.427132
ltoes -11.1687
27
root 14.3626 17.2658 -21.4582 0.350255 1.10307 -4.01405
lowerback 7.94566 2.41014 6.39502
upperback -0.732294 3.98034 2.9484
thorax -5.00683 1.83042 -0.981502
lowerneck -17.6538 -5.31636 -9.87243
upperneck 20.3073 -6.14429 6.40259
head 9.88023 -2.89749 3.02416
rclavicle 8.97016e-015 2.70347e-014
rhumerus -41.9179 16.0822 -89.4685
rradius 122.588
rwrist -11.6995
rhand -4.29297 24.9484
rfingers 7.12502
rthumb 21.4726 -3.88154
lclavicle 8.97016e-015 2.70347e-014
lhumerus -56.7167 -5.01405 96.345
lradius 102.871
lwrist 22.4538
lhand -19.7264 7.01879
lfingers 7.12502
lthumb 6.6039 36.8958
rfemur 11.6111 3.18839 31.5452
rtibia 33.2664
rfoot 1.67602 -10.624
rtoes -15.6733
lfemur -36.866 -0.963092 -13.1059
ltibia 43.7847
lfoot -5.64613 1.34835
ltoes -9.99215
28
root 14.3599 17.3145 -21.0406 0.21868 1.05286 -4.40903
lowerback 7.88263 2.52225 6.54996
upperback -0.791133 4.14524 2.99732
thorax -5.01678 1.90697 -1.03241
lowerneck -17.6211 -5.27018 -9.80622
upperneck 20.4803 -6.16764 6.63772
head 9.94278 -2.87796 3.09615
rclavicle 5.44173e-015 -8.74653e-015
rhumerus -42.7051 15.6023 -89.7502
rradius 121.961
rwrist -11.3015
rhand -4.7715 24.1237
rfingers 7.12502
rthumb 21.0129 -4.75794
lclavicle 5.44173e-015 -8.74653e-015
lhumerus -56.9192 -4.9898 96.1341
lradius 103.026
lwrist 22.2824
lhand -18.9152 6.32052
lfingers 7.12502
lthumb 7.38697 36.1716
rfemur 12.5556 4.00306 32.2908
rtibia 33.1225
rfoot 5.16229 -10.1011
rtoes -14.017
lfemur -36.0527 -2.42144 -11.887
ltibia 39.8887
lfoot -4.2373 2.65559
ltoes -10.562
29
root 14.364 17.3492 -20.6177 0.24979 0.816947 -4.67515
lowerback 7.62995 2.6994 6.58621
upperback -0.973533 4.37238 2.97309
thorax -5.04746 2.01407 -1.09309
lowerneck -17.4795 -5.32576 -9.5951
upperneck 20.7466 -6.36189 6.75142
head 10.0251 -2.9417 3.07823
rclavicle 4.25275e-014 2.78299e-014
rhumerus -43.8252 14.9161 -90.0704
rradius 121.415
rwrist -11.3451
rhand -4.79089 23.807
rfingers 7.12502
rthumb 20.9943 -5.07668
lclavicle 4.25275e-014 2.78299e-014
lhumerus -57.3659 -5.17504 95.9373
lradius 103.261
lwrist 22.1099
lhand -19.0517 6.12278
lfingers 7.12502
lthumb 7.25522 35.9784
rfemur 13.1508 4.72475 32.7271
rtibia 33.4051
rfoot 8.66788 -8.79604
rtoes -11.1432
lfemur -35.4475 -3.5971 -10.8695
ltibia 36.8225
lfoot -1.98936 4.51272
ltoes -10.1333
30
root 14.3748 17.3529 -20.1911 0.337512 0.397676 -4.80782
lowerback 7.10911 2.87283 6.54108
upperback -0.951017 4.54627 2.9208
thorax -4.7166 2.11211 -1.10926
lowerneck -17.646 -5.40954 -9.53876
upperneck 20.9226 -6.55929 7.02975
head 10.1452 -2.99338 3.13858
rclavicle 1.08462e-014 1.43125e-014
rhumerus -44.3763 14.522 -90.2252
rradius 120.663
rwrist -11.5795
rhand -4.86059 23.8208
rfingers 7.12502
rthumb 20.9273 -5.07036
lclavicle 1.08462e-014 1.43125e-014
lhumerus -57.2435 -5.25401 95.7069
lradius 103.381
lwrist 21.7628
lhand -18.9613 6.2053
lfingers 7.12502
lthumb 7.34247 36.0579
rfemur 13.4004 5.21962 32.8329
rtibia 34.3683
rfoot 11.8834 -7.36948
rtoes -5.69984
lfemur -35.2423 -4.49668 -10.052
ltibia 34.5427
lfoot 0.246187 6.52308
ltoes -9.55313
